<svg xmlns="http://www.w3.org/2000/svg" width="512" height="512" viewBox="0 0 512 512"><path d="M259.5 16c-132.549 0-240 107.451-240 240s107.451 240 240 240 240-107.451 240-240-107.451-240-240-240zm207.25 240c0 50.323-17.941 96.453-47.769 132.354l-110.338-110.339 94.207-68.729h-107.711l88.719-107.711h-102.693l-67.28 81.683-86.74-86.74c35.902-29.827 82.032-47.768 132.355-47.768 114.462 0 207.25 92.788 207.25 207.25zm-414.5 0c0-52.618 19.619-100.646 51.928-137.195l89.268 89.269-39.476 47.926h87.403l8.038 8.038-122.26 146.387 155.327-113.319 114.218 114.218c-36.55 32.308-84.577 51.927-137.195 51.927-114.462-.001-207.251-92.789-207.251-207.251z" fill="#fff"/></svg>